<svg width="71" height="71" viewBox="0 0 71 71" fill="none" xmlns="http://www.w3.org/2000/svg">
<path d="M37.6751 30.8275H35.9625V32.5402H37.6751V30.8275Z" fill="#012778"/>
<path d="M37.6751 29.1149H35.9625V30.8275H37.6751V29.1149Z" fill="#012778"/>
<path d="M37.6751 27.4022H35.9625V29.1149H37.6751V27.4022Z" fill="#012778"/>
<path d="M37.6751 25.6896H35.9625V27.4023H37.6751V25.6896Z" fill="#012778"/>
<path d="M37.6751 23.9769H35.9625V25.6896H37.6751V23.9769Z" fill="#012778"/>
<path d="M39.3875 29.1149H37.6749V30.8275H39.3875V29.1149Z" fill="#012778"/>
<path d="M39.3875 27.4022H37.6749V29.1149H39.3875V27.4022Z" fill="#012778"/>
<path d="M39.3875 25.6896H37.6749V27.4023H39.3875V25.6896Z" fill="#012778"/>
<path d="M39.3875 23.9769H37.6749V25.6896H39.3875V23.9769Z" fill="#012778"/>
<path d="M39.3875 22.2643H37.6749V23.977H39.3875V22.2643Z" fill="#012778"/>
<path d="M41.1 27.4022H39.3875V29.1149H41.1V27.4022Z" fill="#012778"/>
<path d="M41.1 25.6896H39.3875V27.4023H41.1V25.6896Z" fill="#012778"/>
<path d="M41.1 23.9769H39.3875V25.6896H41.1V23.9769Z" fill="#012778"/>
<path d="M41.1 22.2643H39.3875V23.977H41.1V22.2643Z" fill="#012778"/>
<path d="M41.1 20.5517H39.3875V22.2644H41.1V20.5517Z" fill="#012778"/>
<path d="M42.8126 25.6896H41.1V27.4023H42.8126V25.6896Z" fill="#012778"/>
<path d="M42.8126 23.9769H41.1V25.6896H42.8126V23.9769Z" fill="#012778"/>
<path d="M42.8126 22.2643H41.1V23.977H42.8126V22.2643Z" fill="#012778"/>
<path d="M42.8126 20.5517H41.1V22.2644H42.8126V20.5517Z" fill="#012778"/>
<path d="M42.8126 18.839H41.1V20.5517H42.8126V18.839Z" fill="#012778"/>
<path d="M34.25 30.8275H32.5374V32.5402H34.25V30.8275Z" fill="#012778"/>
<path d="M34.25 29.1149H32.5374V30.8275H34.25V29.1149Z" fill="#012778"/>
<path d="M34.25 27.4022H32.5374V29.1149H34.25V27.4022Z" fill="#012778"/>
<path d="M34.25 25.6896H32.5374V27.4023H34.25V25.6896Z" fill="#012778"/>
<path d="M34.25 23.9769H32.5374V25.6896H34.25V23.9769Z" fill="#012778"/>
<path d="M32.5375 29.1149H30.825V30.8275H32.5375V29.1149Z" fill="#012778"/>
<path d="M32.5375 27.4022H30.825V29.1149H32.5375V27.4022Z" fill="#012778"/>
<path d="M32.5375 25.6896H30.825V27.4023H32.5375V25.6896Z" fill="#012778"/>
<path d="M32.5375 23.9769H30.825V25.6896H32.5375V23.9769Z" fill="#012778"/>
<path d="M32.5375 22.2643H30.825V23.977H32.5375V22.2643Z" fill="#012778"/>
<path d="M30.825 27.4022H29.1125V29.1149H30.825V27.4022Z" fill="#012778"/>
<path d="M30.825 25.6896H29.1125V27.4023H30.825V25.6896Z" fill="#012778"/>
<path d="M30.825 23.9769H29.1125V25.6896H30.825V23.9769Z" fill="#012778"/>
<path d="M30.825 22.2643H29.1125V23.977H30.825V22.2643Z" fill="#012778"/>
<path d="M30.825 20.5517H29.1125V22.2644H30.825V20.5517Z" fill="#012778"/>
<path d="M29.1125 25.6896H27.4V27.4023H29.1125V25.6896Z" fill="#012778"/>
<path d="M29.1125 23.9769H27.4V25.6896H29.1125V23.9769Z" fill="#012778"/>
<path d="M29.1125 22.2643H27.4V23.977H29.1125V22.2643Z" fill="#012778"/>
<path d="M29.1125 20.5517H27.4V22.2644H29.1125V20.5517Z" fill="#012778"/>
<path d="M29.1125 18.839H27.4V20.5517H29.1125V18.839Z" fill="#012778"/>
<path d="M34.25 44.5286H32.5374V46.2413H34.25V44.5286Z" fill="#012778"/>
<path d="M34.25 42.816H32.5374V44.5287H34.25V42.816Z" fill="#012778"/>
<path d="M34.25 41.1034H32.5374V42.8161H34.25V41.1034Z" fill="#012778"/>
<path d="M34.25 39.3907H32.5374V41.1034H34.25V39.3907Z" fill="#012778"/>
<path d="M34.25 37.678H32.5374V39.3907H34.25V37.678Z" fill="#012778"/>
<path d="M32.5375 46.2413H30.825V47.954H32.5375V46.2413Z" fill="#012778"/>
<path d="M32.5375 44.5286H30.825V46.2413H32.5375V44.5286Z" fill="#012778"/>
<path d="M32.5375 42.816H30.825V44.5287H32.5375V42.816Z" fill="#012778"/>
<path d="M32.5375 41.1034H30.825V42.8161H32.5375V41.1034Z" fill="#012778"/>
<path d="M32.5375 39.3907H30.825V41.1034H32.5375V39.3907Z" fill="#012778"/>
<path d="M30.825 47.9539H29.1125V49.6665H30.825V47.9539Z" fill="#012778"/>
<path d="M30.825 46.2413H29.1125V47.954H30.825V46.2413Z" fill="#012778"/>
<path d="M30.825 44.5286H29.1125V46.2413H30.825V44.5286Z" fill="#012778"/>
<path d="M30.825 42.816H29.1125V44.5287H30.825V42.816Z" fill="#012778"/>
<path d="M30.825 41.1034H29.1125V42.8161H30.825V41.1034Z" fill="#012778"/>
<path d="M29.1125 49.6666H27.4V51.3792H29.1125V49.6666Z" fill="#012778"/>
<path d="M29.1125 47.9539H27.4V49.6665H29.1125V47.9539Z" fill="#012778"/>
<path d="M29.1125 46.2413H27.4V47.954H29.1125V46.2413Z" fill="#012778"/>
<path d="M29.1125 44.5286H27.4V46.2413H29.1125V44.5286Z" fill="#012778"/>
<path d="M29.1125 42.816H27.4V44.5287H29.1125V42.816Z" fill="#012778"/>
<path d="M37.6751 44.5286H35.9625V46.2413H37.6751V44.5286Z" fill="#012778"/>
<path d="M37.6751 42.816H35.9625V44.5287H37.6751V42.816Z" fill="#012778"/>
<path d="M37.6751 41.1034H35.9625V42.8161H37.6751V41.1034Z" fill="#012778"/>
<path d="M37.6751 39.3907H35.9625V41.1034H37.6751V39.3907Z" fill="#012778"/>
<path d="M37.6751 37.678H35.9625V39.3907H37.6751V37.678Z" fill="#012778"/>
<path d="M39.3875 46.2413H37.6749V47.954H39.3875V46.2413Z" fill="#012778"/>
<path d="M39.3875 44.5286H37.6749V46.2413H39.3875V44.5286Z" fill="#012778"/>
<path d="M39.3875 42.816H37.6749V44.5287H39.3875V42.816Z" fill="#012778"/>
<path d="M39.3875 41.1034H37.6749V42.8161H39.3875V41.1034Z" fill="#012778"/>
<path d="M39.3875 39.3907H37.6749V41.1034H39.3875V39.3907Z" fill="#012778"/>
<path d="M41.1 47.9539H39.3875V49.6665H41.1V47.9539Z" fill="#012778"/>
<path d="M41.1 46.2413H39.3875V47.954H41.1V46.2413Z" fill="#012778"/>
<path d="M41.1 44.5286H39.3875V46.2413H41.1V44.5286Z" fill="#012778"/>
<path d="M41.1 42.816H39.3875V44.5287H41.1V42.816Z" fill="#012778"/>
<path d="M41.1 41.1034H39.3875V42.8161H41.1V41.1034Z" fill="#012778"/>
<path d="M42.8126 49.6666H41.1V51.3792H42.8126V49.6666Z" fill="#012778"/>
<path d="M42.8126 47.9539H41.1V49.6665H42.8126V47.9539Z" fill="#012778"/>
<path d="M42.8126 46.2413H41.1V47.954H42.8126V46.2413Z" fill="#012778"/>
<path d="M42.8126 44.5286H41.1V46.2413H42.8126V44.5286Z" fill="#012778"/>
<path d="M42.8126 42.816H41.1V44.5287H42.8126V42.816Z" fill="#012778"/>
<path d="M32.5375 32.5401H30.825V34.2528H32.5375V32.5401Z" fill="#012778"/>
<path d="M35.9625 32.5401H34.25V34.2528H35.9625V32.5401Z" fill="#012778"/>
<path d="M35.9625 35.9655H34.25V37.6781H35.9625V35.9655Z" fill="#012778"/>
<path d="M37.6751 34.2527H35.9625V35.9654H37.6751V34.2527Z" fill="#012778"/>
<path d="M34.25 34.2527H32.5374V35.9654H34.25V34.2527Z" fill="#012778"/>
<path d="M30.825 32.5401H29.1125V34.2528H30.825V32.5401Z" fill="#012778"/>
<path d="M29.1125 32.5401H27.4V34.2528H29.1125V32.5401Z" fill="#012778"/>
<path d="M27.4 32.5401H25.6875V34.2528H27.4V32.5401Z" fill="#012778"/>
<path d="M25.6875 32.5401H23.975V34.2528H25.6875V32.5401Z" fill="#012778"/>
<path d="M30.825 30.8275H29.1125V32.5402H30.825V30.8275Z" fill="#012778"/>
<path d="M29.1125 30.8275H27.4V32.5402H29.1125V30.8275Z" fill="#012778"/>
<path d="M27.4 30.8275H25.6875V32.5402H27.4V30.8275Z" fill="#012778"/>
<path d="M25.6875 30.8275H23.975V32.5402H25.6875V30.8275Z" fill="#012778"/>
<path d="M23.975 30.8275H22.2625V32.5402H23.975V30.8275Z" fill="#012778"/>
<path d="M29.1125 29.1149H27.4V30.8275H29.1125V29.1149Z" fill="#012778"/>
<path d="M27.4 29.1149H25.6875V30.8275H27.4V29.1149Z" fill="#012778"/>
<path d="M25.6875 29.1149H23.975V30.8275H25.6875V29.1149Z" fill="#012778"/>
<path d="M23.975 29.1149H22.2625V30.8275H23.975V29.1149Z" fill="#012778"/>
<path d="M22.2625 29.1149H20.55V30.8275H22.2625V29.1149Z" fill="#012778"/>
<path d="M27.4 27.4022H25.6875V29.1149H27.4V27.4022Z" fill="#012778"/>
<path d="M25.6875 27.4022H23.975V29.1149H25.6875V27.4022Z" fill="#012778"/>
<path d="M25.6875 23.9769H23.975V25.6896H25.6875V23.9769Z" fill="#012778"/>
<path d="M25.6875 22.2643H23.975V23.977H25.6875V22.2643Z" fill="#012778"/>
<path d="M35.9625 17.1263H34.25V18.839H35.9625V17.1263Z" fill="#012778"/>
<path d="M18.8375 34.2527H17.1249V35.9654H18.8375V34.2527Z" fill="#012778"/>
<path d="M35.9625 51.3793H34.25V53.0919H35.9625V51.3793Z" fill="#012778"/>
<path d="M53.0875 34.2527H51.375V35.9654H53.0875V34.2527Z" fill="#012778"/>
<path d="M23.975 22.2643H22.2625V23.977H23.975V22.2643Z" fill="#012778"/>
<path d="M23.975 20.5517H22.2625V22.2644H23.975V20.5517Z" fill="#012778"/>
<path d="M22.2625 22.2643H20.55V23.977H22.2625V22.2643Z" fill="#012778"/>
<path d="M23.975 23.9769H22.2625V25.6896H23.975V23.9769Z" fill="#012778"/>
<path d="M47.95 23.9769H46.2375V25.6896H47.95V23.9769Z" fill="#012778"/>
<path d="M47.95 22.2643H46.2375V23.977H47.95V22.2643Z" fill="#012778"/>
<path d="M47.95 20.5517H46.2375V22.2644H47.95V20.5517Z" fill="#012778"/>
<path d="M49.6625 22.2643H47.95V23.977H49.6625V22.2643Z" fill="#012778"/>
<path d="M46.2375 22.2643H44.525V23.977H46.2375V22.2643Z" fill="#012778"/>
<path d="M46.2375 23.9769H44.525V25.6896H46.2375V23.9769Z" fill="#012778"/>
<path d="M47.95 46.2413H46.2375V47.954H47.95V46.2413Z" fill="#012778"/>
<path d="M47.95 47.9539H46.2375V49.6665H47.95V47.9539Z" fill="#012778"/>
<path d="M49.6625 46.2413H47.95V47.954H49.6625V46.2413Z" fill="#012778"/>
<path d="M47.95 44.5286H46.2375V46.2413H47.95V44.5286Z" fill="#012778"/>
<path d="M46.2375 44.5286H44.525V46.2413H46.2375V44.5286Z" fill="#012778"/>
<path d="M46.2375 46.2413H44.525V47.954H46.2375V46.2413Z" fill="#012778"/>
<path d="M25.6875 46.2413H23.975V47.954H25.6875V46.2413Z" fill="#012778"/>
<path d="M25.6875 44.5286H23.975V46.2413H25.6875V44.5286Z" fill="#012778"/>
<path d="M23.975 44.5286H22.2625V46.2413H23.975V44.5286Z" fill="#012778"/>
<path d="M23.975 46.2413H22.2625V47.954H23.975V46.2413Z" fill="#012778"/>
<path d="M23.975 47.9539H22.2625V49.6665H23.975V47.9539Z" fill="#012778"/>
<path d="M22.2625 46.2413H20.55V47.954H22.2625V46.2413Z" fill="#012778"/>
<path d="M23.975 27.4022H22.2625V29.1149H23.975V27.4022Z" fill="#012778"/>
<path d="M22.2625 27.4022H20.55V29.1149H22.2625V27.4022Z" fill="#012778"/>
<path d="M20.55 27.4022H18.8375V29.1149H20.55V27.4022Z" fill="#012778"/>
<path d="M32.5375 35.9655H30.825V37.6781H32.5375V35.9655Z" fill="#012778"/>
<path d="M30.825 35.9655H29.1125V37.6781H30.825V35.9655Z" fill="#012778"/>
<path d="M29.1125 35.9655H27.4V37.6781H29.1125V35.9655Z" fill="#012778"/>
<path d="M27.4 35.9655H25.6875V37.6781H27.4V35.9655Z" fill="#012778"/>
<path d="M25.6875 35.9655H23.975V37.6781H25.6875V35.9655Z" fill="#012778"/>
<path d="M30.825 37.678H29.1125V39.3907H30.825V37.678Z" fill="#012778"/>
<path d="M29.1125 37.678H27.4V39.3907H29.1125V37.678Z" fill="#012778"/>
<path d="M27.4 37.678H25.6875V39.3907H27.4V37.678Z" fill="#012778"/>
<path d="M25.6875 37.678H23.975V39.3907H25.6875V37.678Z" fill="#012778"/>
<path d="M23.975 37.678H22.2625V39.3907H23.975V37.678Z" fill="#012778"/>
<path d="M29.1125 39.3907H27.4V41.1034H29.1125V39.3907Z" fill="#012778"/>
<path d="M27.4 39.3907H25.6875V41.1034H27.4V39.3907Z" fill="#012778"/>
<path d="M25.6875 39.3907H23.975V41.1034H25.6875V39.3907Z" fill="#012778"/>
<path d="M23.975 39.3907H22.2625V41.1034H23.975V39.3907Z" fill="#012778"/>
<path d="M22.2625 39.3907H20.55V41.1034H22.2625V39.3907Z" fill="#012778"/>
<path d="M27.4 41.1034H25.6875V42.8161H27.4V41.1034Z" fill="#012778"/>
<path d="M25.6875 41.1034H23.975V42.8161H25.6875V41.1034Z" fill="#012778"/>
<path d="M23.975 41.1034H22.2625V42.8161H23.975V41.1034Z" fill="#012778"/>
<path d="M22.2625 41.1034H20.55V42.8161H22.2625V41.1034Z" fill="#012778"/>
<path d="M20.55 41.1034H18.8375V42.8161H20.55V41.1034Z" fill="#012778"/>
<path d="M46.2375 35.9655H44.525V37.6781H46.2375V35.9655Z" fill="#012778"/>
<path d="M44.525 35.9655H42.8124V37.6781H44.525V35.9655Z" fill="#012778"/>
<path d="M42.8126 35.9655H41.1V37.6781H42.8126V35.9655Z" fill="#012778"/>
<path d="M41.1 35.9655H39.3875V37.6781H41.1V35.9655Z" fill="#012778"/>
<path d="M39.3875 35.9655H37.6749V37.6781H39.3875V35.9655Z" fill="#012778"/>
<path d="M47.95 37.678H46.2375V39.3907H47.95V37.678Z" fill="#012778"/>
<path d="M46.2375 37.678H44.525V39.3907H46.2375V37.678Z" fill="#012778"/>
<path d="M44.525 37.678H42.8124V39.3907H44.525V37.678Z" fill="#012778"/>
<path d="M42.8126 37.678H41.1V39.3907H42.8126V37.678Z" fill="#012778"/>
<path d="M41.1 37.678H39.3875V39.3907H41.1V37.678Z" fill="#012778"/>
<path d="M49.6625 39.3907H47.95V41.1034H49.6625V39.3907Z" fill="#012778"/>
<path d="M47.95 39.3907H46.2375V41.1034H47.95V39.3907Z" fill="#012778"/>
<path d="M46.2375 39.3907H44.525V41.1034H46.2375V39.3907Z" fill="#012778"/>
<path d="M44.525 39.3907H42.8124V41.1034H44.525V39.3907Z" fill="#012778"/>
<path d="M42.8126 39.3907H41.1V41.1034H42.8126V39.3907Z" fill="#012778"/>
<path d="M51.375 41.1034H49.6625V42.8161H51.375V41.1034Z" fill="#012778"/>
<path d="M49.6625 41.1034H47.95V42.8161H49.6625V41.1034Z" fill="#012778"/>
<path d="M47.95 41.1034H46.2375V42.8161H47.95V41.1034Z" fill="#012778"/>
<path d="M46.2375 41.1034H44.525V42.8161H46.2375V41.1034Z" fill="#012778"/>
<path d="M44.525 41.1034H42.8124V42.8161H44.525V41.1034Z" fill="#012778"/>
<path d="M46.2375 32.5401H44.525V34.2528H46.2375V32.5401Z" fill="#012778"/>
<path d="M44.525 32.5401H42.8124V34.2528H44.525V32.5401Z" fill="#012778"/>
<path d="M42.8126 32.5401H41.1V34.2528H42.8126V32.5401Z" fill="#012778"/>
<path d="M41.1 32.5401H39.3875V34.2528H41.1V32.5401Z" fill="#012778"/>
<path d="M39.3875 32.5401H37.6749V34.2528H39.3875V32.5401Z" fill="#012778"/>
<path d="M47.95 30.8275H46.2375V32.5402H47.95V30.8275Z" fill="#012778"/>
<path d="M46.2375 30.8275H44.525V32.5402H46.2375V30.8275Z" fill="#012778"/>
<path d="M44.525 30.8275H42.8124V32.5402H44.525V30.8275Z" fill="#012778"/>
<path d="M42.8126 30.8275H41.1V32.5402H42.8126V30.8275Z" fill="#012778"/>
<path d="M41.1 30.8275H39.3875V32.5402H41.1V30.8275Z" fill="#012778"/>
<path d="M49.6625 29.1149H47.95V30.8275H49.6625V29.1149Z" fill="#012778"/>
<path d="M47.95 29.1149H46.2375V30.8275H47.95V29.1149Z" fill="#012778"/>
<path d="M46.2375 29.1149H44.525V30.8275H46.2375V29.1149Z" fill="#012778"/>
<path d="M44.525 29.1149H42.8124V30.8275H44.525V29.1149Z" fill="#012778"/>
<path d="M42.8126 29.1149H41.1V30.8275H42.8126V29.1149Z" fill="#012778"/>
<path d="M51.375 27.4022H49.6625V29.1149H51.375V27.4022Z" fill="#012778"/>
<path d="M49.6625 27.4022H47.95V29.1149H49.6625V27.4022Z" fill="#012778"/>
<path d="M47.95 27.4022H46.2375V29.1149H47.95V27.4022Z" fill="#012778"/>
<path d="M46.2375 27.4022H44.525V29.1149H46.2375V27.4022Z" fill="#012778"/>
<path d="M44.525 27.4022H42.8124V29.1149H44.525V27.4022Z" fill="#012778"/>
<path d="M5.13752 34.2527H3.42499V35.9654H5.13752V34.2527Z" fill="#012778"/>
<path d="M6.85005 32.5401H5.13751V34.2528H6.85005V32.5401Z" fill="#012778"/>
<path d="M8.56245 30.8275H6.84991V32.5402H8.56245V30.8275Z" fill="#012778"/>
<path d="M10.275 29.1149H8.5625V30.8275H10.275V29.1149Z" fill="#012778"/>
<path d="M11.9876 27.4022H10.275V29.1149H11.9876V27.4022Z" fill="#012778"/>
<path d="M13.7 25.6896H11.9874V27.4023H13.7V25.6896Z" fill="#012778"/>
<path d="M15.4125 23.9769H13.7V25.6896H15.4125V23.9769Z" fill="#012778"/>
<path d="M17.1251 22.2643H15.4125V23.977H17.1251V22.2643Z" fill="#012778"/>
<path d="M18.8375 20.5517H17.1249V22.2644H18.8375V20.5517Z" fill="#012778"/>
<path d="M20.55 18.839H18.8375V20.5517H20.55V18.839Z" fill="#012778"/>
<path d="M22.2625 17.1263H20.55V18.839H22.2625V17.1263Z" fill="#012778"/>
<path d="M23.975 15.4138H22.2625V17.1264H23.975V15.4138Z" fill="#012778"/>
<path d="M25.6875 13.701H23.975V15.4137H25.6875V13.701Z" fill="#012778"/>
<path d="M27.4 11.9884H25.6875V13.7011H27.4V11.9884Z" fill="#012778"/>
<path d="M29.1125 10.2758H27.4V11.9885H29.1125V10.2758Z" fill="#012778"/>
<path d="M30.825 8.56317H29.1125V10.2758H30.825V8.56317Z" fill="#012778"/>
<path d="M32.5375 6.85046H30.825V8.56314H32.5375V6.85046Z" fill="#012778"/>
<path d="M34.25 5.13788H32.5374V6.85055H34.25V5.13788Z" fill="#012778"/>
<path d="M35.9625 3.42523H34.25V5.13791H35.9625V3.42523Z" fill="#012778"/>
<path d="M47.95 15.4138H46.2375V17.1264H47.95V15.4138Z" fill="#012778"/>
<path d="M46.2375 13.701H44.525V15.4137H46.2375V13.701Z" fill="#012778"/>
<path d="M44.525 11.9884H42.8124V13.7011H44.525V11.9884Z" fill="#012778"/>
<path d="M42.8126 10.2758H41.1V11.9885H42.8126V10.2758Z" fill="#012778"/>
<path d="M41.1 8.56317H39.3875V10.2758H41.1V8.56317Z" fill="#012778"/>
<path d="M39.3875 6.85046H37.6749V8.56314H39.3875V6.85046Z" fill="#012778"/>
<path d="M37.6751 5.13788H35.9625V6.85055H37.6751V5.13788Z" fill="#012778"/>
<path d="M49.6625 17.1263H47.95V18.839H49.6625V17.1263Z" fill="#012778"/>
<path d="M51.375 18.839H49.6625V20.5517H51.375V18.839Z" fill="#012778"/>
<path d="M53.0875 20.5517H51.375V22.2644H53.0875V20.5517Z" fill="#012778"/>
<path d="M54.8 22.2643H53.0875V23.977H54.8V22.2643Z" fill="#012778"/>
<path d="M56.5125 23.9769H54.8V25.6896H56.5125V23.9769Z" fill="#012778"/>
<path d="M58.225 25.6896H56.5125V27.4023H58.225V25.6896Z" fill="#012778"/>
<path d="M59.9374 27.4022H58.2249V29.1149H59.9374V27.4022Z" fill="#012778"/>
<path d="M61.65 29.1149H59.9375V30.8275H61.65V29.1149Z" fill="#012778"/>
<path d="M63.3624 30.8275H61.6499V32.5402H63.3624V30.8275Z" fill="#012778"/>
<path d="M65.075 32.5401H63.3624V34.2528H65.075V32.5401Z" fill="#012778"/>
<path d="M66.7875 34.2527H65.075V35.9654H66.7875V34.2527Z" fill="#012778"/>
<path d="M37.6751 1.71259H35.9625V3.42526H37.6751V1.71259Z" fill="#012778"/>
<path d="M3.42494 32.5401H1.7124V34.2528H3.42494V32.5401Z" fill="#012778"/>
<path d="M5.13752 30.8275H3.42499V32.5402H5.13752V30.8275Z" fill="#012778"/>
<path d="M6.85005 29.1149H5.13751V30.8275H6.85005V29.1149Z" fill="#012778"/>
<path d="M8.56245 27.4022H6.84991V29.1149H8.56245V27.4022Z" fill="#012778"/>
<path d="M10.275 25.6896H8.5625V27.4023H10.275V25.6896Z" fill="#012778"/>
<path d="M11.9876 23.9769H10.275V25.6896H11.9876V23.9769Z" fill="#012778"/>
<path d="M13.7 22.2643H11.9874V23.977H13.7V22.2643Z" fill="#012778"/>
<path d="M15.4125 20.5517H13.7V22.2644H15.4125V20.5517Z" fill="#012778"/>
<path d="M17.1251 18.839H15.4125V20.5517H17.1251V18.839Z" fill="#012778"/>
<path d="M18.8375 17.1263H17.1249V18.839H18.8375V17.1263Z" fill="#012778"/>
<path d="M20.55 15.4138H18.8375V17.1264H20.55V15.4138Z" fill="#012778"/>
<path d="M22.2625 13.701H20.55V15.4137H22.2625V13.701Z" fill="#012778"/>
<path d="M23.975 11.9884H22.2625V13.7011H23.975V11.9884Z" fill="#012778"/>
<path d="M25.6875 10.2758H23.975V11.9885H25.6875V10.2758Z" fill="#012778"/>
<path d="M27.4 8.56317H25.6875V10.2758H27.4V8.56317Z" fill="#012778"/>
<path d="M29.1125 6.85046H27.4V8.56314H29.1125V6.85046Z" fill="#012778"/>
<path d="M30.825 5.13788H29.1125V6.85055H30.825V5.13788Z" fill="#012778"/>
<path d="M32.5375 3.42523H30.825V5.13791H32.5375V3.42523Z" fill="#012778"/>
<path d="M34.25 1.71259H32.5374V3.42526H34.25V1.71259Z" fill="#012778"/>
<path d="M35.9625 0H34.25V1.71268H35.9625V0Z" fill="#012778"/>
<path d="M49.6625 13.701H47.95V15.4137H49.6625V13.701Z" fill="#012778"/>
<path d="M47.95 11.9884H46.2375V13.7011H47.95V11.9884Z" fill="#012778"/>
<path d="M46.2375 10.2758H44.525V11.9885H46.2375V10.2758Z" fill="#012778"/>
<path d="M44.525 8.56317H42.8124V10.2758H44.525V8.56317Z" fill="#012778"/>
<path d="M42.8126 6.85046H41.1V8.56314H42.8126V6.85046Z" fill="#012778"/>
<path d="M41.1 5.13788H39.3875V6.85055H41.1V5.13788Z" fill="#012778"/>
<path d="M39.3875 3.42523H37.6749V5.13791H39.3875V3.42523Z" fill="#012778"/>
<path d="M51.375 15.4138H49.6625V17.1264H51.375V15.4138Z" fill="#012778"/>
<path d="M53.0875 17.1263H51.375V18.839H53.0875V17.1263Z" fill="#012778"/>
<path d="M54.8 18.839H53.0875V20.5517H54.8V18.839Z" fill="#012778"/>
<path d="M56.5125 20.5517H54.8V22.2644H56.5125V20.5517Z" fill="#012778"/>
<path d="M58.225 22.2643H56.5125V23.977H58.225V22.2643Z" fill="#012778"/>
<path d="M59.9374 23.9769H58.2249V25.6896H59.9374V23.9769Z" fill="#012778"/>
<path d="M61.65 25.6896H59.9375V27.4023H61.65V25.6896Z" fill="#012778"/>
<path d="M63.3624 27.4022H61.6499V29.1149H63.3624V27.4022Z" fill="#012778"/>
<path d="M65.075 29.1149H63.3624V30.8275H65.075V29.1149Z" fill="#012778"/>
<path d="M66.7875 30.8275H65.075V32.5402H66.7875V30.8275Z" fill="#012778"/>
<path d="M68.4999 32.5401H66.7874V34.2528H68.4999V32.5401Z" fill="#012778"/>
<path d="M46.2375 54.8045H44.525V56.5172H46.2375V54.8045Z" fill="#012778"/>
<path d="M44.525 56.5172H42.8124V58.2299H44.525V56.5172Z" fill="#012778"/>
<path d="M42.8126 58.2298H41.1V59.9425H42.8126V58.2298Z" fill="#012778"/>
<path d="M41.1 59.9424H39.3875V61.6551H41.1V59.9424Z" fill="#012778"/>
<path d="M39.3875 61.6551H37.6749V63.3678H39.3875V61.6551Z" fill="#012778"/>
<path d="M37.6751 63.3677H35.9625V65.0804H37.6751V63.3677Z" fill="#012778"/>
<path d="M35.9625 65.0804H34.25V66.7931H35.9625V65.0804Z" fill="#012778"/>
<path d="M37.6751 66.793H35.9625V68.5057H37.6751V66.793Z" fill="#012778"/>
<path d="M35.9625 68.5056H34.25V70.2183H35.9625V68.5056Z" fill="#012778"/>
<path d="M34.25 63.3677H32.5374V65.0804H34.25V63.3677Z" fill="#012778"/>
<path d="M32.5375 61.6551H30.825V63.3678H32.5375V61.6551Z" fill="#012778"/>
<path d="M30.825 59.9424H29.1125V61.6551H30.825V59.9424Z" fill="#012778"/>
<path d="M29.1125 58.2298H27.4V59.9425H29.1125V58.2298Z" fill="#012778"/>
<path d="M27.4 56.5172H25.6875V58.2299H27.4V56.5172Z" fill="#012778"/>
<path d="M47.95 53.0919H46.2375V54.8045H47.95V53.0919Z" fill="#012778"/>
<path d="M49.6625 51.3793H47.95V53.0919H49.6625V51.3793Z" fill="#012778"/>
<path d="M51.375 49.6666H49.6625V51.3792H51.375V49.6666Z" fill="#012778"/>
<path d="M53.0875 47.9539H51.375V49.6665H53.0875V47.9539Z" fill="#012778"/>
<path d="M54.8 46.2413H53.0875V47.954H54.8V46.2413Z" fill="#012778"/>
<path d="M56.5125 44.5286H54.8V46.2413H56.5125V44.5286Z" fill="#012778"/>
<path d="M58.225 42.816H56.5125V44.5287H58.225V42.816Z" fill="#012778"/>
<path d="M59.9374 41.1034H58.2249V42.8161H59.9374V41.1034Z" fill="#012778"/>
<path d="M61.65 39.3907H59.9375V41.1034H61.65V39.3907Z" fill="#012778"/>
<path d="M63.3624 37.678H61.6499V39.3907H63.3624V37.678Z" fill="#012778"/>
<path d="M65.075 35.9655H63.3624V37.6781H65.075V35.9655Z" fill="#012778"/>
<path d="M70.2125 34.2527H68.4999V35.9654H70.2125V34.2527Z" fill="#012778"/>
<path d="M49.6625 54.8045H47.95V56.5172H49.6625V54.8045Z" fill="#012778"/>
<path d="M47.95 56.5172H46.2375V58.2299H47.95V56.5172Z" fill="#012778"/>
<path d="M46.2375 58.2298H44.525V59.9425H46.2375V58.2298Z" fill="#012778"/>
<path d="M44.525 59.9424H42.8124V61.6551H44.525V59.9424Z" fill="#012778"/>
<path d="M42.8126 61.6551H41.1V63.3678H42.8126V61.6551Z" fill="#012778"/>
<path d="M41.1 63.3677H39.3875V65.0804H41.1V63.3677Z" fill="#012778"/>
<path d="M39.3875 65.0804H37.6749V66.7931H39.3875V65.0804Z" fill="#012778"/>
<path d="M51.375 53.0919H49.6625V54.8045H51.375V53.0919Z" fill="#012778"/>
<path d="M53.0875 51.3793H51.375V53.0919H53.0875V51.3793Z" fill="#012778"/>
<path d="M54.8 49.6666H53.0875V51.3792H54.8V49.6666Z" fill="#012778"/>
<path d="M56.5125 47.9539H54.8V49.6665H56.5125V47.9539Z" fill="#012778"/>
<path d="M58.225 46.2413H56.5125V47.954H58.225V46.2413Z" fill="#012778"/>
<path d="M59.9374 44.5286H58.2249V46.2413H59.9374V44.5286Z" fill="#012778"/>
<path d="M61.65 42.816H59.9375V44.5287H61.65V42.816Z" fill="#012778"/>
<path d="M63.3624 41.1034H61.6499V42.8161H63.3624V41.1034Z" fill="#012778"/>
<path d="M65.075 39.3907H63.3624V41.1034H65.075V39.3907Z" fill="#012778"/>
<path d="M66.7875 37.678H65.075V39.3907H66.7875V37.678Z" fill="#012778"/>
<path d="M68.4999 35.9655H66.7874V37.6781H68.4999V35.9655Z" fill="#012778"/>
<path d="M6.85005 35.9655H5.13751V37.6781H6.85005V35.9655Z" fill="#012778"/>
<path d="M8.56245 37.678H6.84991V39.3907H8.56245V37.678Z" fill="#012778"/>
<path d="M10.275 39.3907H8.5625V41.1034H10.275V39.3907Z" fill="#012778"/>
<path d="M11.9876 41.1034H10.275V42.8161H11.9876V41.1034Z" fill="#012778"/>
<path d="M13.7 42.816H11.9874V44.5287H13.7V42.816Z" fill="#012778"/>
<path d="M15.4125 44.5286H13.7V46.2413H15.4125V44.5286Z" fill="#012778"/>
<path d="M17.1251 46.2413H15.4125V47.954H17.1251V46.2413Z" fill="#012778"/>
<path d="M18.8375 47.9539H17.1249V49.6665H18.8375V47.9539Z" fill="#012778"/>
<path d="M20.55 49.6666H18.8375V51.3792H20.55V49.6666Z" fill="#012778"/>
<path d="M22.2625 51.3793H20.55V53.0919H22.2625V51.3793Z" fill="#012778"/>
<path d="M23.975 53.0919H22.2625V54.8045H23.975V53.0919Z" fill="#012778"/>
<path d="M25.6875 54.8045H23.975V56.5172H25.6875V54.8045Z" fill="#012778"/>
<path d="M3.42494 35.9655H1.7124V37.6781H3.42494V35.9655Z" fill="#012778"/>
<path d="M1.71253 34.2527H0V35.9654H1.71253V34.2527Z" fill="#012778"/>
<path d="M34.25 66.793H32.5374V68.5057H34.25V66.793Z" fill="#012778"/>
<path d="M32.5375 65.0804H30.825V66.7931H32.5375V65.0804Z" fill="#012778"/>
<path d="M30.825 63.3677H29.1125V65.0804H30.825V63.3677Z" fill="#012778"/>
<path d="M29.1125 61.6551H27.4V63.3678H29.1125V61.6551Z" fill="#012778"/>
<path d="M27.4 59.9424H25.6875V61.6551H27.4V59.9424Z" fill="#012778"/>
<path d="M25.6875 58.2298H23.975V59.9425H25.6875V58.2298Z" fill="#012778"/>
<path d="M5.13752 37.678H3.42499V39.3907H5.13752V37.678Z" fill="#012778"/>
<path d="M6.85005 39.3907H5.13751V41.1034H6.85005V39.3907Z" fill="#012778"/>
<path d="M8.56245 41.1034H6.84991V42.8161H8.56245V41.1034Z" fill="#012778"/>
<path d="M10.275 42.816H8.5625V44.5287H10.275V42.816Z" fill="#012778"/>
<path d="M11.9876 44.5286H10.275V46.2413H11.9876V44.5286Z" fill="#012778"/>
<path d="M13.7 46.2413H11.9874V47.954H13.7V46.2413Z" fill="#012778"/>
<path d="M15.4125 47.9539H13.7V49.6665H15.4125V47.9539Z" fill="#012778"/>
<path d="M17.1251 49.6666H15.4125V51.3792H17.1251V49.6666Z" fill="#012778"/>
<path d="M18.8375 51.3793H17.1249V53.0919H18.8375V51.3793Z" fill="#012778"/>
<path d="M20.55 53.0919H18.8375V54.8045H20.55V53.0919Z" fill="#012778"/>
<path d="M22.2625 54.8045H20.55V56.5172H22.2625V54.8045Z" fill="#012778"/>
<path d="M23.975 56.5172H22.2625V58.2299H23.975V56.5172Z" fill="#012778"/>
<path d="M8.56245 35.9655H6.84991V37.6781H8.56245V35.9655Z" fill="#012778"/>
<path d="M10.275 37.678H8.5625V39.3907H10.275V37.678Z" fill="#012778"/>
<path d="M11.9876 39.3907H10.275V41.1034H11.9876V39.3907Z" fill="#012778"/>
<path d="M13.7 41.1034H11.9874V42.8161H13.7V41.1034Z" fill="#012778"/>
<path d="M15.4125 42.8159H13.7V44.5286H15.4125V42.8159Z" fill="#012778"/>
<path d="M17.1251 44.5286H15.4125V46.2413H17.1251V44.5286Z" fill="#012778"/>
<path d="M18.8375 46.2413H17.1249V47.954H18.8375V46.2413Z" fill="#012778"/>
<path d="M20.55 47.9539H18.8375V49.6665H20.55V47.9539Z" fill="#012778"/>
<path d="M22.2625 49.6666H20.55V51.3792H22.2625V49.6666Z" fill="#012778"/>
<path d="M23.975 51.3792H22.2625V53.0919H23.975V51.3792Z" fill="#012778"/>
<path d="M25.6875 53.0918H23.975V54.8045H25.6875V53.0918Z" fill="#012778"/>
<path d="M27.4 54.8045H25.6875V56.5172H27.4V54.8045Z" fill="#012778"/>
<path d="M29.1125 56.5172H27.4V58.2298H29.1125V56.5172Z" fill="#012778"/>
<path d="M30.825 58.2297H29.1125V59.9424H30.825V58.2297Z" fill="#012778"/>
<path d="M32.5375 59.9424H30.825V61.6551H32.5375V59.9424Z" fill="#012778"/>
<path d="M34.25 61.6551H32.5374V63.3678H34.25V61.6551Z" fill="#012778"/>
<path d="M65.075 34.2528H63.3624V35.9655H65.075V34.2528Z" fill="#012778"/>
<path d="M63.3624 32.5401H61.6499V34.2528H63.3624V32.5401Z" fill="#012778"/>
<path d="M61.65 30.8275H59.9375V32.5402H61.65V30.8275Z" fill="#012778"/>
<path d="M59.9374 29.1149H58.2249V30.8275H59.9374V29.1149Z" fill="#012778"/>
<path d="M58.225 27.4022H56.5125V29.1149H58.225V27.4022Z" fill="#012778"/>
<path d="M56.5125 25.6896H54.8V27.4023H56.5125V25.6896Z" fill="#012778"/>
<path d="M54.8 23.9769H53.0875V25.6896H54.8V23.9769Z" fill="#012778"/>
<path d="M53.0875 22.2642H51.375V23.9769H53.0875V22.2642Z" fill="#012778"/>
<path d="M51.375 20.5517H49.6625V22.2644H51.375V20.5517Z" fill="#012778"/>
<path d="M49.6625 18.839H47.95V20.5517H49.6625V18.839Z" fill="#012778"/>
<path d="M47.95 17.1263H46.2375V18.839H47.95V17.1263Z" fill="#012778"/>
<path d="M46.2375 15.4138H44.525V17.1264H46.2375V15.4138Z" fill="#012778"/>
<path d="M44.525 13.701H42.8124V15.4137H44.525V13.701Z" fill="#012778"/>
<path d="M42.8126 11.9884H41.1V13.7011H42.8126V11.9884Z" fill="#012778"/>
<path d="M41.1 10.2758H39.3875V11.9885H41.1V10.2758Z" fill="#012778"/>
<path d="M39.3875 8.56317H37.6749V10.2758H39.3875V8.56317Z" fill="#012778"/>
<path d="M37.6751 6.85046H35.9625V8.56314H37.6751V6.85046Z" fill="#012778"/>
<path d="M6.85005 34.2527H5.13751V35.9654H6.85005V34.2527Z" fill="#012778"/>
<path d="M8.56245 32.5401H6.84991V34.2528H8.56245V32.5401Z" fill="#012778"/>
<path d="M10.275 30.8275H8.5625V32.5402H10.275V30.8275Z" fill="#012778"/>
<path d="M11.9876 29.1149H10.275V30.8275H11.9876V29.1149Z" fill="#012778"/>
<path d="M13.7 27.4022H11.9874V29.1149H13.7V27.4022Z" fill="#012778"/>
<path d="M15.4125 25.6896H13.7V27.4023H15.4125V25.6896Z" fill="#012778"/>
<path d="M17.1251 23.9769H15.4125V25.6896H17.1251V23.9769Z" fill="#012778"/>
<path d="M18.8375 22.2642H17.1249V23.9769H18.8375V22.2642Z" fill="#012778"/>
<path d="M20.55 20.5517H18.8375V22.2644H20.55V20.5517Z" fill="#012778"/>
<path d="M22.2625 18.839H20.55V20.5517H22.2625V18.839Z" fill="#012778"/>
<path d="M23.975 17.1263H22.2625V18.839H23.975V17.1263Z" fill="#012778"/>
<path d="M25.6875 15.4138H23.975V17.1264H25.6875V15.4138Z" fill="#012778"/>
<path d="M27.4 13.7011H25.6875V15.4138H27.4V13.7011Z" fill="#012778"/>
<path d="M29.1125 11.9884H27.4V13.7011H29.1125V11.9884Z" fill="#012778"/>
<path d="M30.825 10.2758H29.1125V11.9885H30.825V10.2758Z" fill="#012778"/>
<path d="M32.5375 8.56311H30.825V10.2758H32.5375V8.56311Z" fill="#012778"/>
<path d="M34.25 6.85046H32.5375V8.56314H34.25V6.85046Z" fill="#012778"/>
<path d="M35.9625 5.13788H34.25V6.85055H35.9625V5.13788Z" fill="#012778"/>
<path d="M32.5375 66.793H30.825V68.5057H32.5375V66.793Z" fill="#012778"/>
<path d="M30.825 65.0803H29.1124V66.793H30.825V65.0803Z" fill="#012778"/>
<path d="M29.1124 63.3677H27.3999V65.0804H29.1124V63.3677Z" fill="#012778"/>
<path d="M27.4 61.6551H25.6875V63.3678H27.4V61.6551Z" fill="#012778"/>
<path d="M25.6875 59.9424H23.9749V61.6551H25.6875V59.9424Z" fill="#012778"/>
<path d="M23.9749 58.2297H22.2624V59.9424H23.9749V58.2297Z" fill="#012778"/>
<path d="M22.2625 56.5172H20.5499V58.2298H22.2625V56.5172Z" fill="#012778"/>
<path d="M20.5499 54.8045H18.8374V56.5172H20.5499V54.8045Z" fill="#012778"/>
<path d="M18.8374 53.0918H17.1249V54.8045H18.8374V53.0918Z" fill="#012778"/>
<path d="M17.125 51.3793H15.4125V53.0919H17.125V51.3793Z" fill="#012778"/>
<path d="M15.4125 49.6666H13.7V51.3792H15.4125V49.6666Z" fill="#012778"/>
<path d="M13.7 47.9539H11.9874V49.6665H13.7V47.9539Z" fill="#012778"/>
<path d="M11.9875 46.2413H10.275V47.954H11.9875V46.2413Z" fill="#012778"/>
<path d="M10.275 44.5286H8.56244V46.2413H10.275V44.5286Z" fill="#012778"/>
<path d="M8.56245 42.816H6.84991V44.5287H8.56245V42.816Z" fill="#012778"/>
<path d="M6.84999 41.1034H5.13745V42.8161H6.84999V41.1034Z" fill="#012778"/>
<path d="M5.13746 39.3907H3.42493V41.1034H5.13746V39.3907Z" fill="#012778"/>
<path d="M3.42494 37.678H1.7124V39.3907H3.42494V37.678Z" fill="#012778"/>
<path d="M5.13752 29.1149H3.42499V30.8275H5.13752V29.1149Z" fill="#012778"/>
<path d="M3.42494 30.8275H1.7124V32.5402H3.42494V30.8275Z" fill="#012778"/>
<path d="M1.71253 32.5401H0V34.2528H1.71253V32.5401Z" fill="#012778"/>
<path d="M1.71253 35.9655H0V37.6781H1.71253V35.9655Z" fill="#012778"/>
<path d="M6.85005 27.4022H5.13751V29.1149H6.85005V27.4022Z" fill="#012778"/>
<path d="M8.56245 25.6896H6.84991V27.4023H8.56245V25.6896Z" fill="#012778"/>
<path d="M10.275 23.9769H8.5625V25.6896H10.275V23.9769Z" fill="#012778"/>
<path d="M11.9876 22.2642H10.275V23.9769H11.9876V22.2642Z" fill="#012778"/>
<path d="M13.7 20.5517H11.9874V22.2644H13.7V20.5517Z" fill="#012778"/>
<path d="M15.4125 18.839H13.7V20.5517H15.4125V18.839Z" fill="#012778"/>
<path d="M17.1251 17.1263H15.4125V18.839H17.1251V17.1263Z" fill="#012778"/>
<path d="M18.8375 15.4138H17.1249V17.1264H18.8375V15.4138Z" fill="#012778"/>
<path d="M20.55 13.701H18.8375V15.4137H20.55V13.701Z" fill="#012778"/>
<path d="M22.2625 11.9884H20.55V13.7011H22.2625V11.9884Z" fill="#012778"/>
<path d="M23.975 10.2758H22.2625V11.9885H23.975V10.2758Z" fill="#012778"/>
<path d="M25.6875 8.56317H23.975V10.2758H25.6875V8.56317Z" fill="#012778"/>
<path d="M27.4 6.85046H25.6875V8.56314H27.4V6.85046Z" fill="#012778"/>
<path d="M29.1125 5.13788H27.4V6.85055H29.1125V5.13788Z" fill="#012778"/>
<path d="M30.825 3.42523H29.1125V5.13791H30.825V3.42523Z" fill="#012778"/>
<path d="M32.5375 1.71252H30.825V3.4252H32.5375V1.71252Z" fill="#012778"/>
<path d="M34.25 0H32.5374V1.71268H34.25V0Z" fill="#012778"/>
<path d="M42.8126 63.3677H41.1V65.0804H42.8126V63.3677Z" fill="#012778"/>
<path d="M41.1 65.0803H39.3875V66.793H41.1V65.0803Z" fill="#012778"/>
<path d="M39.3875 66.793H37.6749V68.5057H39.3875V66.793Z" fill="#012778"/>
<path d="M37.6751 68.5056H35.9625V70.2183H37.6751V68.5056Z" fill="#012778"/>
<path d="M34.25 68.5056H32.5374V70.2183H34.25V68.5056Z" fill="#012778"/>
<path d="M44.525 61.6551H42.8124V63.3678H44.525V61.6551Z" fill="#012778"/>
<path d="M46.2375 59.9424H44.525V61.6551H46.2375V59.9424Z" fill="#012778"/>
<path d="M47.95 58.2297H46.2375V59.9424H47.95V58.2297Z" fill="#012778"/>
<path d="M49.6625 56.5172H47.95V58.2298H49.6625V56.5172Z" fill="#012778"/>
<path d="M51.375 54.8045H49.6625V56.5172H51.375V54.8045Z" fill="#012778"/>
<path d="M53.0875 53.0918H51.375V54.8045H53.0875V53.0918Z" fill="#012778"/>
<path d="M54.8 51.3792H53.0875V53.0919H54.8V51.3792Z" fill="#012778"/>
<path d="M56.5125 49.6666H54.8V51.3792H56.5125V49.6666Z" fill="#012778"/>
<path d="M58.225 47.9539H56.5125V49.6665H58.225V47.9539Z" fill="#012778"/>
<path d="M59.9374 46.2413H58.2249V47.954H59.9374V46.2413Z" fill="#012778"/>
<path d="M61.65 44.5286H59.9375V46.2413H61.65V44.5286Z" fill="#012778"/>
<path d="M63.3624 42.8159H61.6499V44.5286H63.3624V42.8159Z" fill="#012778"/>
<path d="M65.075 41.1034H63.3624V42.8161H65.075V41.1034Z" fill="#012778"/>
<path d="M66.7875 39.3907H65.075V41.1034H66.7875V39.3907Z" fill="#012778"/>
<path d="M68.4999 37.678H66.7874V39.3907H68.4999V37.678Z" fill="#012778"/>
<path d="M70.2125 35.9655H68.4999V37.6781H70.2125V35.9655Z" fill="#012778"/>
<path d="M39.3875 1.71252H37.6749V3.4252H39.3875V1.71252Z" fill="#012778"/>
<path d="M37.6751 0H35.9625V1.71268H37.6751V0Z" fill="#012778"/>
<path d="M70.2125 32.5401H68.4999V34.2528H70.2125V32.5401Z" fill="#012778"/>
<path d="M68.4999 30.8275H66.7874V32.5402H68.4999V30.8275Z" fill="#012778"/>
<path d="M66.7875 29.1149H65.075V30.8275H66.7875V29.1149Z" fill="#012778"/>
<path d="M65.075 27.4022H63.3624V29.1149H65.075V27.4022Z" fill="#012778"/>
<path d="M63.3624 25.6896H61.6498V27.4023H63.3624V25.6896Z" fill="#012778"/>
<path d="M61.65 23.9769H59.9374V25.6896H61.65V23.9769Z" fill="#012778"/>
<path d="M59.9374 22.2642H58.2249V23.9769H59.9374V22.2642Z" fill="#012778"/>
<path d="M58.2249 20.5517H56.5124V22.2644H58.2249V20.5517Z" fill="#012778"/>
<path d="M56.5125 18.839H54.7999V20.5517H56.5125V18.839Z" fill="#012778"/>
<path d="M54.7999 17.1263H53.0874V18.839H54.7999V17.1263Z" fill="#012778"/>
<path d="M53.0875 15.4138H51.375V17.1264H53.0875V15.4138Z" fill="#012778"/>
<path d="M51.375 13.701H49.6625V15.4137H51.375V13.701Z" fill="#012778"/>
<path d="M49.6624 11.9884H47.9499V13.7011H49.6624V11.9884Z" fill="#012778"/>
<path d="M47.95 10.2758H46.2375V11.9885H47.95V10.2758Z" fill="#012778"/>
<path d="M46.2375 8.56317H44.525V10.2758H46.2375V8.56317Z" fill="#012778"/>
<path d="M44.5249 6.85046H42.8124V8.56314H44.5249V6.85046Z" fill="#012778"/>
<path d="M42.8125 5.13788H41.1V6.85055H42.8125V5.13788Z" fill="#012778"/>
<path d="M41.1 3.42523H39.3875V5.13791H41.1V3.42523Z" fill="#012778"/>
<path d="M63.3624 35.9655H61.6499V37.6781H63.3624V35.9655Z" fill="#012778"/>
<path d="M61.65 37.678H59.9375V39.3907H61.65V37.678Z" fill="#012778"/>
<path d="M59.9374 39.3907H58.2249V41.1034H59.9374V39.3907Z" fill="#012778"/>
<path d="M58.225 41.1034H56.5125V42.8161H58.225V41.1034Z" fill="#012778"/>
<path d="M56.5125 42.8159H54.8V44.5286H56.5125V42.8159Z" fill="#012778"/>
<path d="M54.8 44.5286H53.0875V46.2413H54.8V44.5286Z" fill="#012778"/>
<path d="M53.0875 46.2413H51.375V47.954H53.0875V46.2413Z" fill="#012778"/>
<path d="M51.375 47.9539H49.6625V49.6665H51.375V47.9539Z" fill="#012778"/>
<path d="M49.6625 49.6666H47.95V51.3792H49.6625V49.6666Z" fill="#012778"/>
<path d="M47.95 51.3792H46.2375V53.0919H47.95V51.3792Z" fill="#012778"/>
<path d="M46.2375 53.0918H44.525V54.8045H46.2375V53.0918Z" fill="#012778"/>
<path d="M44.525 54.8045H42.8124V56.5172H44.525V54.8045Z" fill="#012778"/>
<path d="M42.8126 56.5172H41.1V58.2298H42.8126V56.5172Z" fill="#012778"/>
<path d="M41.1 58.2297H39.3875V59.9424H41.1V58.2297Z" fill="#012778"/>
<path d="M39.3875 59.9424H37.6749V61.6551H39.3875V59.9424Z" fill="#012778"/>
<path d="M37.6751 61.6551H35.9625V63.3678H37.6751V61.6551Z" fill="#012778"/>
<path d="M35.9625 63.3677H34.25V65.0804H35.9625V63.3677Z" fill="#012778"/>
<path d="M35.9625 34.2527H34.25V35.9654H35.9625V34.2527Z" fill="#00DCF6"/>
<path d="M68.4999 34.2528H66.7874V35.9655H68.4999V34.2528Z" fill="#00DCF6"/>
<path d="M66.7875 32.5402H65.075V34.2528H66.7875V32.5402Z" fill="#00DCF6"/>
<path d="M65.075 30.8276H63.3624V32.5403H65.075V30.8276Z" fill="#00DCF6"/>
<path d="M63.3624 29.1149H61.6498V30.8275H63.3624V29.1149Z" fill="#00DCF6"/>
<path d="M61.65 27.4022H59.9374V29.1149H61.65V27.4022Z" fill="#00DCF6"/>
<path d="M59.9374 25.6896H58.2249V27.4023H59.9374V25.6896Z" fill="#00DCF6"/>
<path d="M58.2249 23.9769H56.5124V25.6896H58.2249V23.9769Z" fill="#00DCF6"/>
<path d="M56.5125 22.2643H54.7999V23.977H56.5125V22.2643Z" fill="#00DCF6"/>
<path d="M54.7999 20.5517H53.0874V22.2644H54.7999V20.5517Z" fill="#00DCF6"/>
<path d="M53.0875 18.8391H51.375V20.5517H53.0875V18.8391Z" fill="#00DCF6"/>
<path d="M51.3749 17.1263H49.6624V18.839H51.3749V17.1263Z" fill="#00DCF6"/>
<path d="M49.6624 15.4138H47.9499V17.1264H49.6624V15.4138Z" fill="#00DCF6"/>
<path d="M47.95 13.7011H46.2375V15.4138H47.95V13.7011Z" fill="#00DCF6"/>
<path d="M46.2374 11.9884H44.5249V13.7011H46.2374V11.9884Z" fill="#00DCF6"/>
<path d="M44.5249 10.2758H42.8124V11.9885H44.5249V10.2758Z" fill="#00DCF6"/>
<path d="M42.8125 8.56317H41.1V10.2758H42.8125V8.56317Z" fill="#00DCF6"/>
<path d="M41.1 6.85052H39.3875V8.5632H41.1V6.85052Z" fill="#00DCF6"/>
<path d="M39.3875 5.13794H37.6749V6.85062H39.3875V5.13794Z" fill="#00DCF6"/>
<path d="M37.675 3.42523H35.9625V5.13791H37.675V3.42523Z" fill="#00DCF6"/>
<path d="M35.9625 1.71259H34.2499V3.42526H35.9625V1.71259Z" fill="#00DCF6"/>
<path d="M10.275 41.1034H8.56244V42.8161H10.275V41.1034Z" fill="#00DCF6"/>
<path d="M8.56245 39.3907H6.84991V41.1034H8.56245V39.3907Z" fill="#00DCF6"/>
<path d="M6.84999 37.6781H5.13745V39.3908H6.84999V37.6781Z" fill="#00DCF6"/>
<path d="M5.13746 35.9655H3.42493V37.6782H5.13746V35.9655Z" fill="#00DCF6"/>
<path d="M3.42494 34.2528H1.7124V35.9655H3.42494V34.2528Z" fill="#00DCF6"/>
<path d="M18.8374 49.6666H17.1249V51.3793H18.8374V49.6666Z" fill="#00DCF6"/>
<path d="M17.125 47.9539H15.4125V49.6666H17.125V47.9539Z" fill="#00DCF6"/>
<path d="M15.4125 46.2413H13.7V47.954H15.4125V46.2413Z" fill="#00DCF6"/>
<path d="M13.7 44.5286H11.9874V46.2413H13.7V44.5286Z" fill="#00DCF6"/>
<path d="M11.9875 42.816H10.275V44.5287H11.9875V42.816Z" fill="#00DCF6"/>
<path d="M27.4 58.2298H25.6875V59.9425H27.4V58.2298Z" fill="#00DCF6"/>
<path d="M25.6875 56.5172H23.9749V58.2298H25.6875V56.5172Z" fill="#00DCF6"/>
<path d="M23.9749 54.8045H22.2624V56.5172H23.9749V54.8045Z" fill="#00DCF6"/>
<path d="M22.2625 53.0919H20.5499V54.8045H22.2625V53.0919Z" fill="#00DCF6"/>
<path d="M20.5499 51.3793H18.8374V53.0919H20.5499V51.3793Z" fill="#00DCF6"/>
<path d="M35.9625 66.7931H34.2499V68.5058H35.9625V66.7931Z" fill="#00DCF6"/>
<path d="M37.675 65.0804H35.9625V66.7931H37.675V65.0804Z" fill="#00DCF6"/>
<path d="M39.3875 63.3677H37.6749V65.0804H39.3875V63.3677Z" fill="#00DCF6"/>
<path d="M41.1 61.6552H39.3875V63.3678H41.1V61.6552Z" fill="#00DCF6"/>
<path d="M42.8125 59.9424H41.1V61.6551H42.8125V59.9424Z" fill="#00DCF6"/>
<path d="M44.5249 58.2298H42.8124V59.9425H44.5249V58.2298Z" fill="#00DCF6"/>
<path d="M46.2374 56.5172H44.5249V58.2298H46.2374V56.5172Z" fill="#00DCF6"/>
<path d="M47.95 54.8045H46.2375V56.5172H47.95V54.8045Z" fill="#00DCF6"/>
<path d="M49.6624 53.0919H47.9499V54.8045H49.6624V53.0919Z" fill="#00DCF6"/>
<path d="M51.3749 51.3793H49.6624V53.0919H51.3749V51.3793Z" fill="#00DCF6"/>
<path d="M53.0875 49.6666H51.375V51.3793H53.0875V49.6666Z" fill="#00DCF6"/>
<path d="M54.7999 47.9539H53.0874V49.6666H54.7999V47.9539Z" fill="#00DCF6"/>
<path d="M56.5125 46.2413H54.7999V47.954H56.5125V46.2413Z" fill="#00DCF6"/>
<path d="M58.2249 44.5286H56.5124V46.2413H58.2249V44.5286Z" fill="#00DCF6"/>
<path d="M59.9374 42.816H58.2249V44.5287H59.9374V42.816Z" fill="#00DCF6"/>
<path d="M61.65 41.1034H59.9374V42.8161H61.65V41.1034Z" fill="#00DCF6"/>
<path d="M63.3624 39.3907H61.6498V41.1034H63.3624V39.3907Z" fill="#00DCF6"/>
<path d="M65.075 37.6781H63.3624V39.3908H65.075V37.6781Z" fill="#00DCF6"/>
<path d="M66.7875 35.9655H65.075V37.6782H66.7875V35.9655Z" fill="#00DCF6"/>
<path d="M29.1124 8.56317H27.3999V10.2758H29.1124V8.56317Z" fill="#00DCF6"/>
<path d="M30.825 6.85052H29.1124V8.5632H30.825V6.85052Z" fill="#00DCF6"/>
<path d="M32.5375 5.13794H30.825V6.85062H32.5375V5.13794Z" fill="#00DCF6"/>
<path d="M34.25 3.42523H32.5374V5.13791H34.25V3.42523Z" fill="#00DCF6"/>
<path d="M22.2625 15.4138H20.5499V17.1264H22.2625V15.4138Z" fill="#00DCF6"/>
<path d="M23.9749 13.7011H22.2624V15.4138H23.9749V13.7011Z" fill="#00DCF6"/>
<path d="M25.6875 11.9884H23.9749V13.7011H25.6875V11.9884Z" fill="#00DCF6"/>
<path d="M27.4 10.2758H25.6875V11.9885H27.4V10.2758Z" fill="#00DCF6"/>
<path d="M15.4125 22.2643H13.7V23.977H15.4125V22.2643Z" fill="#00DCF6"/>
<path d="M17.125 20.5517H15.4125V22.2644H17.125V20.5517Z" fill="#00DCF6"/>
<path d="M18.8374 18.8391H17.1249V20.5517H18.8374V18.8391Z" fill="#00DCF6"/>
<path d="M20.5499 17.1263H18.8374V18.839H20.5499V17.1263Z" fill="#00DCF6"/>
<path d="M8.56245 29.1149H6.84991V30.8275H8.56245V29.1149Z" fill="#00DCF6"/>
<path d="M6.84999 30.8276H5.13745V32.5403H6.84999V30.8276Z" fill="#00DCF6"/>
<path d="M5.13746 32.5402H3.42493V34.2528H5.13746V32.5402Z" fill="#00DCF6"/>
<path d="M10.275 27.4022H8.56244V29.1149H10.275V27.4022Z" fill="#00DCF6"/>
<path d="M11.9875 25.6896H10.275V27.4023H11.9875V25.6896Z" fill="#00DCF6"/>
<path d="M13.7 23.9769H11.9874V25.6896H13.7V23.9769Z" fill="#00DCF6"/>
<path d="M34.25 65.0804H32.5374V66.7931H34.25V65.0804Z" fill="#00DCF6"/>
<path d="M32.5375 63.3677H30.825V65.0804H32.5375V63.3677Z" fill="#00DCF6"/>
<path d="M30.825 61.6552H29.1124V63.3678H30.825V61.6552Z" fill="#00DCF6"/>
<path d="M29.1124 59.9424H27.3999V61.6551H29.1124V59.9424Z" fill="#00DCF6"/>
<path d="M18.8374 37.678H17.1249V39.3907H18.8374V37.678Z" fill="#00DCF6"/>
<path d="M17.125 35.9655H15.4125V37.6781H17.125V35.9655Z" fill="#00DCF6"/>
<path d="M18.8374 35.9655H17.1249V37.6781H18.8374V35.9655Z" fill="#00DCF6"/>
<path d="M20.55 35.9655H18.8375V37.6781H20.55V35.9655Z" fill="#00DCF6"/>
<path d="M20.55 34.2527H18.8375V35.9654H20.55V34.2527Z" fill="#00DCF6"/>
<path d="M22.2625 34.2527H20.55V35.9654H22.2625V34.2527Z" fill="#00DCF6"/>
<path d="M17.125 34.2527H15.4125V35.9654H17.125V34.2527Z" fill="#00DCF6"/>
<path d="M15.4125 34.2527H13.7V35.9654H15.4125V34.2527Z" fill="#00DCF6"/>
<path d="M17.125 32.5401H15.4125V34.2528H17.125V32.5401Z" fill="#00DCF6"/>
<path d="M18.8374 32.5401H17.1249V34.2528H18.8374V32.5401Z" fill="#00DCF6"/>
<path d="M20.55 32.5401H18.8375V34.2528H20.55V32.5401Z" fill="#00DCF6"/>
<path d="M18.8375 30.8275H17.1249V32.5402H18.8375V30.8275Z" fill="#00DCF6"/>
<path d="M35.9625 54.8044H34.25V56.5171H35.9625V54.8044Z" fill="#00DCF6"/>
<path d="M34.25 53.0918H32.5374V54.8045H34.25V53.0918Z" fill="#00DCF6"/>
<path d="M35.9625 53.0918H34.25V54.8045H35.9625V53.0918Z" fill="#00DCF6"/>
<path d="M37.6751 53.0918H35.9625V54.8045H37.6751V53.0918Z" fill="#00DCF6"/>
<path d="M37.6751 51.3792H35.9625V53.0919H37.6751V51.3792Z" fill="#00DCF6"/>
<path d="M39.3875 51.3792H37.6749V53.0919H39.3875V51.3792Z" fill="#00DCF6"/>
<path d="M34.25 51.3792H32.5374V53.0919H34.25V51.3792Z" fill="#00DCF6"/>
<path d="M32.5375 51.3792H30.825V53.0919H32.5375V51.3792Z" fill="#00DCF6"/>
<path d="M34.25 49.6666H32.5374V51.3792H34.25V49.6666Z" fill="#00DCF6"/>
<path d="M35.9625 49.6666H34.25V51.3792H35.9625V49.6666Z" fill="#00DCF6"/>
<path d="M37.6751 49.6666H35.9625V51.3792H37.6751V49.6666Z" fill="#00DCF6"/>
<path d="M35.9625 47.9539H34.25V49.6665H35.9625V47.9539Z" fill="#00DCF6"/>
<path d="M53.0875 37.678H51.375V39.3907H53.0875V37.678Z" fill="#00DCF6"/>
<path d="M51.375 35.9655H49.6625V37.6781H51.375V35.9655Z" fill="#00DCF6"/>
<path d="M53.0875 35.9655H51.375V37.6781H53.0875V35.9655Z" fill="#00DCF6"/>
<path d="M54.8 35.9655H53.0875V37.6781H54.8V35.9655Z" fill="#00DCF6"/>
<path d="M54.8 34.2527H53.0875V35.9654H54.8V34.2527Z" fill="#00DCF6"/>
<path d="M56.5125 34.2527H54.8V35.9654H56.5125V34.2527Z" fill="#00DCF6"/>
<path d="M51.375 34.2527H49.6625V35.9654H51.375V34.2527Z" fill="#00DCF6"/>
<path d="M49.6625 34.2527H47.95V35.9654H49.6625V34.2527Z" fill="#00DCF6"/>
<path d="M51.375 32.5401H49.6625V34.2528H51.375V32.5401Z" fill="#00DCF6"/>
<path d="M53.0875 32.5401H51.375V34.2528H53.0875V32.5401Z" fill="#00DCF6"/>
<path d="M54.8 32.5401H53.0875V34.2528H54.8V32.5401Z" fill="#00DCF6"/>
<path d="M53.0875 30.8275H51.375V32.5402H53.0875V30.8275Z" fill="#00DCF6"/>
<path d="M35.9625 20.5517H34.25V22.2644H35.9625V20.5517Z" fill="#00DCF6"/>
<path d="M34.25 18.839H32.5374V20.5517H34.25V18.839Z" fill="#00DCF6"/>
<path d="M35.9625 18.839H34.25V20.5517H35.9625V18.839Z" fill="#00DCF6"/>
<path d="M37.6751 18.839H35.9625V20.5517H37.6751V18.839Z" fill="#00DCF6"/>
<path d="M37.6751 17.1263H35.9625V18.839H37.6751V17.1263Z" fill="#00DCF6"/>
<path d="M39.3875 17.1263H37.6749V18.839H39.3875V17.1263Z" fill="#00DCF6"/>
<path d="M34.25 17.1263H32.5374V18.839H34.25V17.1263Z" fill="#00DCF6"/>
<path d="M32.5375 17.1263H30.825V18.839H32.5375V17.1263Z" fill="#00DCF6"/>
<path d="M34.25 15.4138H32.5374V17.1264H34.25V15.4138Z" fill="#00DCF6"/>
<path d="M35.9625 15.4138H34.25V17.1264H35.9625V15.4138Z" fill="#00DCF6"/>
<path d="M37.6751 15.4138H35.9625V17.1264H37.6751V15.4138Z" fill="#00DCF6"/>
<path d="M35.9625 13.7011H34.25V15.4138H35.9625V13.7011Z" fill="#00DCF6"/>
</svg>
