<?xml version="1.0" encoding="UTF-8"?>
<svg version="1.1" xmlns="http://www.w3.org/2000/svg" width="336" height="676">
<path d="M0 0 C2.46464169 2.46464169 2.35079242 3.27530161 2.4375 6.6875 C2.06820194 23.37108279 -8.66834552 44.60893038 -20.125 56.5625 C-24.74808962 60.35072016 -30.35212218 59.50079705 -36 59 C-36.16653076 59.52424561 -36.33306152 60.04849121 -36.50463867 60.58862305 C-38.19555363 65.79673213 -40.10844561 70.8744392 -42.15917969 75.95068359 C-48.46549058 91.59898509 -53.3750106 107.15105492 -56.75 123.6875 C-56.94883789 124.65993652 -57.14767578 125.63237305 -57.35253906 126.63427734 C-60.31459142 141.92974669 -61.38360831 156.95048814 -61.3125 172.5 C-61.31001251 173.37760986 -61.30752502 174.25521973 -61.30496216 175.15942383 C-61.20379026 198.35800839 -57.75126786 220.53477201 -53.51342773 243.29296875 C-50.23702725 261.07171334 -48.62609793 278.61153943 -48.75 296.6875 C-48.75310181 297.50594391 -48.75620361 298.32438782 -48.75939941 299.16763306 C-48.96266808 345.26438722 -58.02669429 389.563797 -72.25 433.3125 C-72.47171875 434.00480713 -72.6934375 434.69711426 -72.921875 435.41040039 C-74.46167911 439.99257786 -76.50976485 443.88685518 -79 448 C-80.32 448 -81.64 448 -83 448 C-84.39276114 443.41425122 -83.48471353 440.49575126 -81.97265625 436.015625 C-81.5090239 434.60823776 -81.0456569 433.20076309 -80.58251953 431.79321289 C-80.21057465 430.68407028 -80.21057465 430.68407028 -79.83111572 429.55252075 C-72.24140097 406.81622328 -66.43848579 383.76495462 -62.125 360.1875 C-61.93373535 359.1466626 -61.7424707 358.1058252 -61.54541016 357.03344727 C-58.43340498 338.99879781 -57.65113586 321.10688523 -57.68432617 302.82885742 C-57.68748679 299.20265606 -57.66392294 295.5772733 -57.63867188 291.95117188 C-57.57915803 270.56316898 -60.37678196 250.13102373 -64.45043945 229.19360352 C-67.83499284 211.68648393 -69.35468573 194.61435172 -69.31567383 176.77001953 C-69.31251774 173.76688119 -69.33607002 170.76473621 -69.36132812 167.76171875 C-69.48182095 130.7853429 -60.57786792 93.02321961 -44.29248047 59.79370117 C-41.51969524 53.78255661 -41.65294752 48.94077126 -42.01171875 42.328125 C-41.97187151 31.01150838 -31.81837786 22.8111755 -24.38671875 15.390625 C-23.01198227 14.01363854 -21.65116163 12.62175136 -20.33203125 11.19140625 C-15.14397531 5.62991698 -8.09957416 -0.99540221 0 0 Z " fill="#74C076" transform="translate(168,201)"/>
<path d="M0 0 C7.68820503 6.28892027 12.93827198 14.66749672 14.0703125 24.61328125 C14.42163546 35.32863153 12.45466594 43.40800776 5.4375 51.625 C-2.36111296 59.67930518 -9.75829046 63.24326743 -21.0625 63.625 C-31.7997399 63.4088903 -39.30950581 60.35389012 -47.078125 52.89453125 C-53.97095733 44.73640627 -56.71334397 35.94937431 -56.5859375 25.4765625 C-55.81948019 16.43236629 -51.77183895 8.56659113 -45.3125 2.25 C-31.25432482 -8.57831461 -14.96729952 -10.39474692 0 0 Z " fill="#544238" transform="translate(210.3125,123.75)"/>
<path d="M0 0 C0.81392837 15.16178203 -12.88301585 27.8890922 -22.265625 38.58203125 C-27.53691706 44.18545756 -34.29934548 50.17227941 -42.3125 50.625 C-47.4544715 49.75347941 -49.4657739 47.74584349 -52.8125 43.9375 C-54.97497335 38.58822382 -55.15860842 33.07437762 -53.109375 27.63671875 C-47.00914714 17.29205524 -35.6000416 11.05628022 -25.3125 5.5625 C-24.54139893 5.14943604 -23.77029785 4.73637207 -22.97583008 4.31079102 C-7.3929782 -3.6964891 -7.3929782 -3.6964891 0 0 Z " fill="#FFDA08" transform="translate(149,186)"/>
<path d="M0 0 C3.94995664 2.28599853 6.43303217 4.84141356 8.4375 8.9375 C9.7595203 16.13516606 9.06165424 20.977147 5 27 C-4.01987192 38.21818241 -21.51029933 50.96442311 -35.9765625 53.52734375 C-38.4375 53.5625 -38.4375 53.5625 -42 53 C-43 52 -43 52 -43.5 48.8125 C-43.22478036 35.9001117 -31.63772425 23.55333915 -24 14 C-23.33613281 13.14921875 -22.67226562 12.2984375 -21.98828125 11.421875 C-16.25865513 4.42345055 -9.48026069 -1.83488917 0 0 Z " fill="#FFDA07" transform="translate(254,60)"/>
<path d="M0 0 C15.07790561 6.03116224 27.13279394 25.92720381 34 40 C36.68191434 47.4225596 36.68191434 47.4225596 35.02734375 51.25 C34.68832031 51.8275 34.34929687 52.405 34 53 C27.76975171 53.37298604 23.84775042 52.54980618 18.375 49.625 C17.69131348 49.27139404 17.00762695 48.91778809 16.30322266 48.5534668 C4.0596403 42.02760632 -9.35723158 33.46597451 -16 21 C-17.79224637 15.0961296 -16.60070254 10.43506195 -14 5 C-10.16278566 -0.53010302 -6.31724553 -1.12768854 0 0 Z " fill="#FFDA06" transform="translate(124,59)"/>
<path d="M0 0 C4.36078639 2.26425447 7.25549517 4.93406692 10 9 C14.13343592 22.50255734 7.31897882 36.52296376 1.08984375 48.28125 C-2.48042366 54.77084296 -6.46846041 61.00946927 -12 66 C-14.5625 66.5 -14.5625 66.5 -17 66 C-21.63777217 61.36222783 -21.14623011 55.73472 -21.19042969 49.57080078 C-21.15908334 14.03971948 -21.15908334 14.03971948 -13.46484375 3.99609375 C-9.16903776 -0.22142876 -5.89242557 -0.93530565 0 0 Z " fill="#FFDA06" transform="translate(209,38)"/>
<path d="M0 0 C3.10322009 2.18348744 5.04830864 4.85833602 6.7265625 8.21484375 C7.24588858 12.54823678 7.2954878 16.10172903 5.2890625 20.02734375 C-4.65347525 28.51487598 -18.35525352 28.54865602 -30.7734375 28.46484375 C-31.91941406 28.47257812 -33.06539063 28.4803125 -34.24609375 28.48828125 C-53.06543549 28.44546136 -53.06543549 28.44546136 -59.2734375 23.21484375 C-59.39125484 20.32831882 -59.35981584 18.8334255 -58.2734375 16.21484375 C-46.32150909 4.18358838 -16.01299447 -8.9634491 0 0 Z " fill="#FFDA07" transform="translate(294.2734375,97.78515625)"/>
<path d="M0 0 C11.58656966 1.68531922 22.53951512 14.69154381 29.4375 23.5 C36.018113 32.45522099 39.85947567 40.12419466 38.4375 51.5 C36.32552807 55.95860742 34.02927808 58.62154533 29.4375 60.5 C24.8987787 61.00430237 22.52388574 60.98776503 18.375 59.125 C4.30983702 46.55613095 -3.31064706 23.34326418 -4.6796875 5.08203125 C-4.51502225 1.45390687 -3.510237 0.68492429 0 0 Z " fill="#FFDA08" transform="translate(206.5625,203.5)"/>
<path d="M0 0 C1.30590088 0.01305176 1.30590088 0.01305176 2.63818359 0.02636719 C17.44543998 0.35191869 33.91926606 1.62329305 45.4375 11.8125 C49.01470483 15.87750548 49.23722659 19.65656697 49.13671875 24.8984375 C48.66302678 28.51675926 47.18574418 30.66272094 44.8125 33.375 C40.05549353 36.54633765 35.37748184 35.98255899 29.8125 35.375 C14.8066628 31.45712615 -6.05173308 21.32251547 -15.1875 8.375 C-15.4375 5.5625 -15.4375 5.5625 -15.1875 3.375 C-9.98770213 0.20990564 -5.90253547 -0.09862406 0 0 Z " fill="#FFDA07" transform="translate(249.1875,165.625)"/>
<path d="M0 0 C2.46464169 2.46464169 2.35079242 3.27530161 2.4375 6.6875 C2.06820194 23.37108279 -8.66834552 44.60893038 -20.125 56.5625 C-24.15337033 59.79603493 -28.32976069 59.68018944 -33.328125 59.69921875 C-36 59 -36 59 -37.859375 56.45703125 C-38.23578125 55.64621094 -38.6121875 54.83539063 -39 54 C-39.99 54.99 -40.98 55.98 -42 57 C-42.70613012 42.59494559 -41.88443388 34.31117634 -32 23.1875 C-29.5022289 20.5453265 -26.95958622 17.95964663 -24.38671875 15.390625 C-23.01198227 14.01363854 -21.65116163 12.62175136 -20.33203125 11.19140625 C-15.14397531 5.62991698 -8.09957416 -0.99540221 0 0 Z " fill="#FEDA07" transform="translate(168,201)"/>
<path d="M0 0 C7.53731335 4.31548137 10.55474509 10.97432408 13 19 C15.95145763 30.10535791 18.10786516 41.16273306 18.25 52.6875 C18.27578125 53.94949219 18.3015625 55.21148437 18.328125 56.51171875 C17.98225142 60.18868429 17.14702338 62.04501782 15 65 C9.6575394 64.61839567 6.74146964 62.6252263 3 59 C1.28371814 56.93718746 -0.28262808 54.93832174 -1.8125 52.75 C-2.23337891 52.15300293 -2.65425781 51.55600586 -3.08789062 50.94091797 C-6.36673064 46.16846586 -9.25995195 41.22354904 -12 36.125 C-12.37358643 35.43631836 -12.74717285 34.74763672 -13.13208008 34.03808594 C-16.8184967 26.94665853 -18.64682037 20.02057261 -18 12 C-16.14143173 6.73405656 -13.39685804 4.20604232 -9 1 C-5.49702123 -0.16765959 -3.67754393 -0.55510097 0 0 Z " fill="#FFDA06" transform="translate(163,38)"/>
<path d="M0 0 C1.24265625 -0.00257813 2.4853125 -0.00515625 3.765625 -0.0078125 C6.75 0.125 6.75 0.125 7.75 1.125 C7.51339076 7.29655763 6.20783264 10.83252361 2 15.4375 C1.51265381 15.98946045 1.02530762 16.5414209 0.52319336 17.11010742 C-9.79461445 28.4957814 -25.29278624 43.29962687 -41.25 44.125 C-45.02107908 42.99367628 -47.44228308 41.9587723 -50.1875 39.125 C-52.19840194 33.44715922 -52.01227294 27.60238705 -50.25 21.875 C-40.99609626 9.15088236 -24.51570011 4.1418065 -9.8359375 0.53125 C-6.53429974 0.01256371 -3.34089893 -0.00698933 0 0 Z " fill="#FFDA07" transform="translate(127.25,159.875)"/>
<path d="M0 0 C11.54850025 5.40171786 21.23198843 14.02407868 30.21875 22.921875 C30.75943115 23.4569165 31.3001123 23.99195801 31.85717773 24.54321289 C38.74178689 31.55749226 38.74178689 31.55749226 39.34375 36.734375 C39.03125 39.046875 39.03125 39.046875 37.03125 41.046875 C20.85007208 43.65593315 1.58882258 36.6370725 -11.96875 28.046875 C-16.37764225 24.53745575 -20.37072441 20.74628914 -21.3046875 14.96875 C-21.40809264 9.21942399 -20.29742001 4.80905984 -16.96875 0.046875 C-11.91030631 -2.48234685 -5.21978223 -1.67582482 0 0 Z " fill="#FFDA06" transform="translate(102.96875,90.953125)"/>
<path d="M0 0 C16.09225417 0.22811185 34.33547112 7.73603193 46.48046875 18.30859375 C50.42620073 22.48212056 52.12798587 26.26581149 52.8125 31.9375 C52.19831392 36.67550692 50.40129961 39.7525246 47.8125 43.6875 C43.81330734 46.35362844 40.0215545 46.0634583 35.375 45.3125 C20.34108608 40.40346688 3.40860513 23.67806955 -4.77734375 10.28515625 C-6.15518048 7.07866986 -6.12624398 4.74960156 -5.625 1.3125 C-3.99798805 -0.31451195 -2.25146295 0.06309409 0 0 Z " fill="#FFD906" transform="translate(226.625,190.6875)"/>
<path d="M0 0 C2.95703125 0.0625 2.95703125 0.0625 6 1 C14.41202262 12.35518687 14.2809049 30.61433005 14.4375 44.0625 C14.45981689 45.2162915 14.48213379 46.37008301 14.50512695 47.55883789 C14.48642914 54.49572751 13.81501024 59.14295897 10 65 C5.71965181 67.85356546 2.01875692 67.47835027 -3 67 C-8.01329363 65.48655287 -10.52810643 62.86526387 -13.01953125 58.3984375 C-18.88746321 44.04421349 -12.70068377 23.67495402 -7 10 C-5.06817031 6.26918851 -2.98994055 2.98994055 0 0 Z " fill="#FFDA06" transform="translate(186,206)"/>
<path d="M0 0 C1.29534668 -0.02223633 2.59069336 -0.04447266 3.92529297 -0.06738281 C13.04189923 -0.04621695 19.71147234 1.35307993 27.0625 6.8125 C30.44805822 10.28063281 31.55019857 12.79607435 31.6875 17.64453125 C31.45911997 21.94806741 30.98599271 23.98150921 28.25 27.4375 C22.78068997 31.60459335 16.22147986 31.16245657 9.625 30.4375 C-3.80743456 28.03274647 -24.48284712 23.32965288 -34.375 13.4375 C-34.76085457 9.96480887 -34.93328122 8.14360036 -32.72265625 5.34765625 C-24.4806694 -1.3583863 -9.95925451 0.09713403 0 0 Z " fill="#FFDA06" transform="translate(272.375,133.5625)"/>
<path d="M0 0 C25.7357853 8.73817004 25.7357853 8.73817004 32.3203125 16.48828125 C32.6953125 18.98828125 32.6953125 18.98828125 32.3203125 21.48828125 C28.68217549 26.34855714 21.92997884 26.58768075 16.3203125 27.48828125 C11.47691038 27.89565164 6.67882177 27.95411826 1.8203125 27.92578125 C0.60472656 27.94576172 -0.61085937 27.96574219 -1.86328125 27.98632812 C-11.24518851 27.98132177 -22.2937945 27.25150977 -29.4296875 20.42578125 C-33.12185037 15.6054575 -33.12687716 11.28439648 -33.10546875 5.3828125 C-32.64360698 2.2429999 -32.20975859 1.28452602 -29.8046875 -0.69921875 C-20.16093276 -6.2925965 -10.0261652 -3.25587347 0 0 Z " fill="#FFD905" transform="translate(102.6796875,126.51171875)"/>
<path d="M0 0 C3.33938677 4.81299516 2.63647752 11.15268655 1.875 16.6875 C-0.62005592 21.95484029 -4.44531195 25.34350785 -9.6484375 27.953125 C-24.73255842 33.16024619 -48.3896444 33.56900316 -63 26.6875 C-66.125 24.6875 -66.125 24.6875 -67.125 22.6875 C-67.6875 20 -67.6875 20 -67.125 16.6875 C-59.07481799 5.03520265 -37.33226546 -0.48626553 -24.34375 -3.0625 C-15.49025594 -4.47905905 -7.5019607 -5.55145092 0 0 Z M-59.125 18.6875 C-59.125 19.3475 -59.125 20.0075 -59.125 20.6875 C-44.06382871 24.87115869 -25.43030743 26.20962297 -10.6875 20.3125 C-7.93489797 18.56694749 -6.5513803 17.61950394 -5.125 14.6875 C-4.62834976 11.27992749 -4.28183752 7.95513127 -6.265625 4.97265625 C-17.9240715 -3.08538766 -49.92023289 10.29423629 -59.125 18.6875 Z " fill="#70BE73" transform="translate(181.125,320.3125)"/>
<path d="M0 0 C15.99049106 6.90947144 27.12775948 25.14397666 35.9609375 39.4453125 C36.88650357 42.22201072 37.15389241 44.12228145 37.2109375 47.0078125 C37.23671875 47.79285156 37.2625 48.57789063 37.2890625 49.38671875 C37.18078125 50.06605469 37.0725 50.74539063 36.9609375 51.4453125 C32.87835661 54.1670331 29.75187081 53.94270521 24.9609375 53.4453125 C22.11744518 52.73677234 19.51298452 51.69077529 16.8359375 50.5078125 C16.11164551 50.19787354 15.38735352 49.88793457 14.64111328 49.56860352 C0.7211711 43.42085636 -12.35341572 35.98546202 -20.0390625 22.4453125 C-21.84926528 17.01470415 -21.74003997 12.34787478 -19.3515625 7.1953125 C-14.79523217 -0.81373874 -8.73253977 -2.37551848 0 0 Z M-11.9140625 7.9453125 C-13.47741516 11.41942952 -14.24596783 14.65451132 -14.0390625 18.4453125 C-7.83163875 32.33811804 10.22663426 40.13130129 23.4375 45.6328125 C26.15368469 46.64963657 26.15368469 46.64963657 29.9609375 46.4453125 C29.44959823 41.79125846 27.36395115 38.68152934 24.6484375 35.0078125 C23.98618164 34.10180298 23.98618164 34.10180298 23.31054688 33.17749023 C11.06917897 15.49954284 11.06917897 15.49954284 -6.9765625 5.7578125 C-10.02105145 6.20618015 -10.02105145 6.20618015 -11.9140625 7.9453125 Z " fill="#70BE72" transform="translate(57.0390625,287.5546875)"/>
<path d="M0 0 C0.66 0.33 1.32 0.66 2 1 C-0.97 3.97 -3.94 6.94 -7 10 C-7.66 9.67 -8.32 9.34 -9 9 C-8.06725891 7.87105124 -7.12859878 6.74699124 -6.1875 5.625 C-5.66542969 4.99851562 -5.14335937 4.37203125 -4.60546875 3.7265625 C-3 2 -3 2 0 0 Z " fill="#938882" transform="translate(169,123)"/>
<path d="M0 0 C0.66 0.33 1.32 0.66 2 1 C-0.31 3.31 -2.62 5.62 -5 8 C-5 5 -5 5 -2.5 2.3125 C-1.675 1.549375 -0.85 0.78625 0 0 Z " fill="#FFE54D" transform="translate(115,59)"/>
</svg>
